<svg xmlns="http://www.w3.org/2000/svg" width="222" height="65" viewBox="0 0 170 50">
	<g transform="matrix(1,0,0,1.3333375,-308.99834,-252.67754)">
		<path
		  style="fill:#ffffff;stroke:#ffffff;opacity:0.9;font-size:7.52845px;font-family:Audiowide;-inkscape-font-specification:Audiowide;stroke-width:0.0484812"
		  d="m 314.8417,226.56119 h -4.02652 q -0.15454,0 -0.33483,-0.0284 -0.176,-0.032 -0.35199,-0.0961 -0.17171,-0.0642 -0.33054,-0.16381 -0.15884,-0.10331 -0.28331,-0.24569 -0.1202,-0.146 -0.19317,-0.33474 -0.073,-0.19228 -0.073,-0.43086 v -2.50688 q 0,-0.12819 0.0343,-0.27419 0.0386,-0.14956 0.11584,-0.29199 0.0773,-0.146 0.20176,-0.27776 0.12448,-0.13174 0.29618,-0.23146 0.17601,-0.10331 0.40352,-0.1638 0.22751,-0.0606 0.51512,-0.0606 h 4.02651 v 0.92584 h -4.02651 q -0.21893,0 -0.33484,0.0962 -0.11583,0.0961 -0.11583,0.28487 v 2.49977 q 0,0.17804 0.11583,0.27774 0.12021,0.0961 0.33484,0.0961 h 4.02651 z m 7.20736,-3.38998 q 0,0.31691 -0.0945,0.56618 -0.0945,0.24927 -0.25756,0.44154 -0.15883,0.18874 -0.36917,0.32406 -0.21034,0.13531 -0.44213,0.22433 -0.22752,0.0855 -0.46362,0.12464 -0.2318,0.0391 -0.43784,0.0391 l 2.33091,1.67007 h -1.72565 l -2.32663,-1.67007 h -0.80272 v -0.92584 h 2.52409 q 0.21033,-0.0142 0.38204,-0.0712 0.17601,-0.0606 0.30048,-0.16023 0.12878,-0.0997 0.19748,-0.23858 0.0687,-0.14243 0.0687,-0.32404 v -0.58399 q 0,-0.0784 -0.0257,-0.11751 -0.0215,-0.0428 -0.0602,-0.0606 -0.0343,-0.0214 -0.0773,-0.0249 -0.0386,-0.003 -0.073,-0.003 h -3.68309 v 4.18052 h -1.11609 v -4.63987 q 0,-0.0961 0.0429,-0.18161 0.0429,-0.0855 0.11596,-0.14956 0.0773,-0.0641 0.18031,-0.0997 0.10299,-0.0356 0.22321,-0.0356 h 4.23685 q 0.37346,0 0.63102,0.11395 0.25756,0.11042 0.4164,0.28131 0.16311,0.16737 0.2318,0.36322 0.073,0.19585 0.073,0.36676 z m 7.16016,3.38998 h -1.11609 v -1.25343 h -3.92348 v 1.25343 h -1.11609 v -2.55317 q 0,-0.55907 0.23179,-1.02911 0.2318,-0.47004 0.6439,-0.80832 0.4121,-0.33829 0.97443,-0.52702 0.56234,-0.18873 1.2277,-0.18873 h 2.51551 q 0.11596,0 0.21892,0.0356 0.10299,0.0356 0.18029,0.0997 0.0773,0.0642 0.1202,0.14957 0.0429,0.0854 0.0429,0.1816 z m -5.03957,-2.17928 h 3.92348 v -2.00123 h -1.96175 q -0.0514,0 -0.21892,0.0142 -0.16312,0.0101 -0.38205,0.0606 -0.21463,0.0498 -0.45502,0.15312 -0.24038,0.10331 -0.44214,0.28487 -0.20176,0.18161 -0.33482,0.4558 -0.12878,0.27063 -0.12878,0.65877 z m 12.48733,1.78402 q 0,0.0997 -0.0471,0.18516 -0.0429,0.0854 -0.1202,0.14957 -0.073,0.0606 -0.17601,0.0961 -0.10299,0.0356 -0.21891,0.0356 -0.103,0 -0.21035,-0.032 -0.103,-0.032 -0.18458,-0.10331 l -4.07803,-3.53242 v 3.59652 h -1.11609 v -4.71109 q 0,-0.14244 0.0945,-0.25638 0.0987,-0.11751 0.24896,-0.17449 0.15884,-0.0533 0.32625,-0.0249 0.16741,0.0249 0.2876,0.12819 l 4.07803,3.52887 v -3.59653 h 1.1161 z m 6.35744,-1.69143 h -3.52428 v -0.93296 h 3.52428 z m 0.50223,2.08669 h -4.02651 q -0.2318,0 -0.50652,-0.0676 -0.27474,-0.0677 -0.51084,-0.22077 -0.2318,-0.15668 -0.39064,-0.40238 -0.15453,-0.24927 -0.15453,-0.60892 v -3.34013 q 0,-0.0961 0.0429,-0.18161 0.0429,-0.0855 0.11584,-0.14956 0.0773,-0.0641 0.18029,-0.0997 0.103,-0.0356 0.22322,-0.0356 h 5.0267 v 0.92583 h -4.47294 v 2.88079 q 0,0.18159 0.11584,0.27774 0.11595,0.0961 0.33912,0.0961 h 4.01792 z m 10.07059,-2.9698 q 0,0.31693 -0.0945,0.56618 -0.0945,0.24927 -0.25756,0.44156 -0.15882,0.18872 -0.36917,0.32404 -0.21034,0.13532 -0.44214,0.22078 -0.2275,0.0855 -0.4636,0.12463 -0.23181,0.0391 -0.43786,0.0391 h -2.52408 v -0.92583 h 2.52408 q 0.21463,-0.0142 0.38634,-0.0712 0.176,-0.0606 0.30048,-0.16024 0.1245,-0.0997 0.19317,-0.23859 0.0687,-0.14244 0.0687,-0.32048 v -0.42018 q -0.0215,-0.17449 -0.0902,-0.32048 -0.0687,-0.146 -0.18887,-0.24927 -0.11584,-0.10331 -0.28331,-0.16023 -0.16742,-0.0606 -0.38634,-0.0606 h -2.51549 q -0.22322,0 -0.33913,0.0962 -0.11597,0.0961 -0.11597,0.27773 v 3.80662 h -1.11609 v -3.80662 q 0,-0.35608 0.15455,-0.60535 0.15883,-0.24926 0.39062,-0.40237 0.2361,-0.15312 0.51084,-0.22078 0.27472,-0.0712 0.50653,-0.0712 h 2.52408 q 0.37775,0 0.67824,0.082 0.30048,0.0784 0.528,0.21364 0.2318,0.13176 0.39064,0.30625 0.16311,0.17448 0.26613,0.36678 0.10732,0.18871 0.15455,0.38456 0.0471,0.1923 0.0471,0.36323 z m 7.41342,0.90447 q 0,0.46648 -0.19317,0.85817 -0.19317,0.39171 -0.53658,0.67658 -0.34342,0.28487 -0.81561,0.44511 -0.4679,0.15669 -1.02164,0.15669 h -1.51103 q -0.55375,0 -1.02594,-0.15669 -0.47219,-0.16024 -0.8156,-0.44511 -0.34342,-0.28487 -0.54089,-0.67658 -0.19317,-0.39169 -0.19317,-0.85817 v -0.97569 q 0,-0.46292 0.19317,-0.85461 0.19747,-0.39526 0.54089,-0.67658 0.34341,-0.28487 0.8156,-0.44512 0.47219,-0.16023 1.02594,-0.16023 h 1.51103 q 0.55374,0 1.02164,0.16023 0.47219,0.16025 0.81561,0.44512 0.34341,0.28132 0.53658,0.67658 0.19317,0.39169 0.19317,0.85461 z m -1.11609,-0.97569 q 0,-0.27419 -0.10732,-0.49496 -0.10299,-0.22435 -0.29619,-0.38102 -0.18887,-0.16024 -0.45932,-0.24571 -0.26613,-0.089 -0.58808,-0.089 h -1.51103 q -0.32623,0 -0.59667,0.089 -0.26615,0.0855 -0.45932,0.24571 -0.19317,0.15667 -0.30048,0.38102 -0.103,0.22077 -0.103,0.49496 v 0.97569 q 0,0.27419 0.103,0.49853 0.10731,0.22077 0.30048,0.38102 0.19317,0.15667 0.45932,0.2457 0.27044,0.0854 0.59667,0.0854 h 1.50243 q 0.32624,0 0.59239,-0.0854 0.27044,-0.089 0.46361,-0.2457 0.19316,-0.16025 0.29619,-0.38102 0.10732,-0.22434 0.10732,-0.49853 z m 8.25907,3.04102 h -1.11608 v -1.25343 h -3.9235 v 1.25343 h -1.11608 v -2.55317 q 0,-0.55907 0.23179,-1.02911 0.23181,-0.47004 0.6439,-0.80832 0.4121,-0.33829 0.97444,-0.52702 0.56234,-0.18873 1.2277,-0.18873 h 2.5155 q 0.11584,0 0.21892,0.0356 0.103,0.0356 0.18029,0.0997 0.0773,0.0642 0.12019,0.14957 0.0429,0.0854 0.0429,0.1816 z m -5.03958,-2.17928 h 3.9235 v -2.00123 h -1.96175 q -0.0514,0 -0.21893,0.0142 -0.16313,0.0101 -0.38204,0.0606 -0.21464,0.0498 -0.45503,0.15312 -0.24038,0.10331 -0.44215,0.28487 -0.20174,0.18161 -0.33482,0.4558 -0.12878,0.27063 -0.12878,0.65877 z m 13.50042,2.17928 h -1.12469 v -3.04102 l -1.97891,2.8879 q -0.073,0.11042 -0.20604,0.16736 -0.12878,0.057 -0.27903,0.057 -0.14595,0 -0.27473,-0.057 -0.12449,-0.057 -0.19746,-0.16736 l -1.9875,-2.8879 v 3.04102 h -1.1161 v -4.71108 q 0,-0.16025 0.11164,-0.28488 0.11584,-0.12462 0.30049,-0.16736 0.0902,-0.0178 0.18029,-0.0101 0.0902,0.003 0.17171,0.032 0.0859,0.0249 0.15453,0.0748 0.0687,0.0462 0.11585,0.11394 l 2.54124,3.66419 2.54126,-3.66419 q 0.0988,-0.13532 0.27044,-0.19228 0.17601,-0.057 0.36487,-0.0178 0.18029,0.0427 0.29621,0.16736 0.11584,0.12463 0.11584,0.28487 z m 10.19506,0 h -1.11609 v -1.25343 h -3.92349 v 1.25343 h -1.1161 v -2.55317 q 0,-0.55907 0.23181,-1.02911 0.2318,-0.47004 0.6439,-0.80832 0.41209,-0.33829 0.97443,-0.52702 0.56234,-0.18873 1.2277,-0.18873 h 2.51549 q 0.11597,0 0.21894,0.0356 0.10299,0.0356 0.18029,0.0997 0.0773,0.0642 0.1202,0.14957 0.0429,0.0854 0.0429,0.1816 z m -5.03958,-2.17928 h 3.92349 v -2.00123 h -1.96175 q -0.0514,0 -0.21892,0.0142 -0.16312,0.0101 -0.38205,0.0606 -0.21463,0.0498 -0.45502,0.15312 -0.24039,0.10331 -0.44215,0.28487 -0.20175,0.18161 -0.33482,0.4558 -0.12878,0.27063 -0.12878,0.65877 z m 12.36716,1.7128 q 0,0.0997 -0.0429,0.18517 -0.0429,0.0854 -0.12019,0.14956 -0.0773,0.0606 -0.18029,0.0962 -0.103,0.0356 -0.21893,0.0356 h -2.5155 q -0.3563,0 -0.72118,-0.0642 -0.36486,-0.0642 -0.70828,-0.19585 -0.33912,-0.13531 -0.6396,-0.34185 -0.30049,-0.20652 -0.528,-0.48784 -0.22322,-0.28486 -0.352,-0.64808 -0.12878,-0.36678 -0.12878,-0.81545 v -2.55318 h 1.11609 v 2.55318 q 0,0.3917 0.12878,0.66233 0.13309,0.27063 0.33483,0.45223 0.20176,0.18162 0.44215,0.28487 0.24038,0.10331 0.45502,0.15313 0.21892,0.0498 0.38204,0.0642 0.16742,0.0102 0.21893,0.0102 h 1.96175 v -4.18052 h 1.11609 z m 6.85966,-3.71403 h -2.45969 v 4.18051 H 397.411 v -4.18051 h -2.46399 v -0.92584 h 6.03977 z m 7.1945,2.11518 q 0,0.46648 -0.19317,0.85817 -0.19317,0.39171 -0.53658,0.67658 -0.34342,0.28487 -0.81561,0.44511 -0.46789,0.15669 -1.02165,0.15669 h -1.51102 q -0.55374,0 -1.02594,-0.15669 -0.47219,-0.16024 -0.8156,-0.44511 -0.34342,-0.28487 -0.54088,-0.67658 -0.19317,-0.39169 -0.19317,-0.85817 v -0.97569 q 0,-0.46292 0.19317,-0.85461 0.19746,-0.39526 0.54088,-0.67658 0.34341,-0.28487 0.8156,-0.44512 0.4722,-0.16023 1.02594,-0.16023 h 1.51102 q 0.55376,0 1.02165,0.16023 0.47219,0.16025 0.81561,0.44512 0.34341,0.28132 0.53658,0.67658 0.19317,0.39169 0.19317,0.85461 z m -1.11609,-0.97569 q 0,-0.27419 -0.10732,-0.49496 -0.10299,-0.22435 -0.29619,-0.38102 -0.18888,-0.16024 -0.45932,-0.24571 -0.26614,-0.089 -0.58809,-0.089 h -1.51102 q -0.32624,0 -0.59667,0.089 -0.26616,0.0855 -0.45933,0.24571 -0.19317,0.15667 -0.30048,0.38102 -0.103,0.22077 -0.103,0.49496 v 0.97569 q 0,0.27419 0.103,0.49853 0.10731,0.22077 0.30048,0.38102 0.19317,0.15667 0.45933,0.2457 0.27043,0.0854 0.59667,0.0854 h 1.50243 q 0.32625,0 0.59239,-0.0854 0.27044,-0.089 0.46361,-0.2457 0.19317,-0.16025 0.29619,-0.38102 0.10732,-0.22434 0.10732,-0.49853 z m 9.38375,3.04102 h -1.12468 v -3.04102 l -1.97892,2.8879 q -0.073,0.11042 -0.20604,0.16736 -0.12878,0.057 -0.27903,0.057 -0.14594,0 -0.27472,-0.057 -0.1245,-0.057 -0.19747,-0.16736 l -1.9875,-2.8879 v 3.04102 h -1.1161 v -4.71108 q 0,-0.16025 0.11164,-0.28488 0.11584,-0.12462 0.30049,-0.16736 0.0902,-0.0178 0.18029,-0.0101 0.0902,0.003 0.17171,0.032 0.0858,0.0249 0.15453,0.0748 0.0687,0.0462 0.11585,0.11394 l 2.54125,3.66419 2.54125,-3.66419 q 0.0987,-0.13532 0.27044,-0.19228 0.17601,-0.057 0.36487,-0.0178 0.18029,0.0427 0.29621,0.16736 0.11596,0.12463 0.11596,0.28487 z m 7.33615,0 H 422.669 v -1.25343 h -3.92349 v 1.25343 h -1.11609 v -2.55317 q 0,-0.55907 0.2318,-1.02911 0.23181,-0.47004 0.6439,-0.80832 0.4121,-0.33829 0.97444,-0.52702 0.56234,-0.18873 1.2277,-0.18873 h 2.5155 q 0.11584,0 0.21892,0.0356 0.10299,0.0356 0.1803,0.0997 0.0773,0.0642 0.12018,0.14957 0.0429,0.0854 0.0429,0.1816 z m -5.03958,-2.17928 h 3.92349 v -2.00123 h -1.96174 q -0.0516,0 -0.21893,0.0142 -0.16312,0.0101 -0.38204,0.0606 -0.21464,0.0498 -0.45502,0.15312 -0.24039,0.10331 -0.44215,0.28487 -0.20174,0.18161 -0.33483,0.4558 -0.12878,0.27063 -0.12878,0.65877 z m 11.89927,-2.00123 h -2.4597 v 4.18051 h -1.11609 v -4.18051 h -2.464 v -0.92584 h 6.03979 z m 1.94455,4.18051 h -1.11608 v -5.10635 h 1.11608 z m 7.76543,-2.06533 q 0,0.46648 -0.19317,0.85817 -0.19317,0.39171 -0.53658,0.67658 -0.34342,0.28487 -0.81561,0.44511 -0.4679,0.15669 -1.02165,0.15669 h -1.51101 q -0.55376,0 -1.02596,-0.15669 -0.47219,-0.16024 -0.8156,-0.44511 -0.34342,-0.28487 -0.54087,-0.67658 -0.19317,-0.39169 -0.19317,-0.85817 v -0.97569 q 0,-0.46292 0.19317,-0.85461 0.19745,-0.39526 0.54087,-0.67658 0.34341,-0.28487 0.8156,-0.44512 0.4722,-0.16023 1.02596,-0.16023 h 1.51101 q 0.55375,0 1.02165,0.16023 0.47219,0.16025 0.81561,0.44512 0.34341,0.28132 0.53658,0.67658 0.19317,0.39169 0.19317,0.85461 z m -1.11609,-0.97569 q 0,-0.27419 -0.10732,-0.49496 -0.10299,-0.22435 -0.29619,-0.38102 -0.18888,-0.16024 -0.45932,-0.24571 -0.26614,-0.089 -0.58809,-0.089 h -1.51101 q -0.32625,0 -0.59669,0.089 -0.26615,0.0855 -0.45932,0.24571 -0.19316,0.15667 -0.30048,0.38102 -0.103,0.22077 -0.103,0.49496 v 0.97569 q 0,0.27419 0.103,0.49853 0.10732,0.22077 0.30048,0.38102 0.19317,0.15667 0.45932,0.2457 0.27044,0.0854 0.59669,0.0854 h 1.50243 q 0.32623,0 0.59239,-0.0854 0.27043,-0.089 0.4636,-0.2457 0.19317,-0.16025 0.29619,-0.38102 0.10732,-0.22434 0.10732,-0.49853 z m 8.37068,2.64576 q 0,0.0997 -0.0471,0.18516 -0.0429,0.0854 -0.1202,0.14957 -0.073,0.0606 -0.17599,0.0961 -0.103,0.0356 -0.21893,0.0356 -0.10299,0 -0.21034,-0.032 -0.10299,-0.032 -0.18458,-0.10331 l -4.07803,-3.53242 v 3.59652 h -1.11609 v -4.71109 q 0,-0.14244 0.0945,-0.25638 0.0988,-0.11751 0.24898,-0.17449 0.15883,-0.0533 0.32624,-0.0249 0.16741,0.0249 0.28761,0.12819 l 4.07803,3.52887 v -3.59653 h 1.11609 z m 9.62415,-3.78525 h -2.45969 v 4.18051 h -1.1161 v -4.18051 h -2.46399 v -0.92584 h 6.03978 z m 7.1945,2.11518 q 0,0.46648 -0.19317,0.85817 -0.19317,0.39171 -0.53659,0.67658 -0.34341,0.28487 -0.8156,0.44511 -0.4679,0.15669 -1.02166,0.15669 h -1.51101 q -0.55375,0 -1.02594,-0.15669 -0.47219,-0.16024 -0.81561,-0.44511 -0.34341,-0.28487 -0.54087,-0.67658 -0.19317,-0.39169 -0.19317,-0.85817 v -0.97569 q 0,-0.46292 0.19317,-0.85461 0.19746,-0.39526 0.54087,-0.67658 0.34342,-0.28487 0.81561,-0.44512 0.47219,-0.16023 1.02594,-0.16023 h 1.51101 q 0.55376,0 1.02166,0.16023 0.47219,0.16025 0.8156,0.44512 0.34342,0.28132 0.53659,0.67658 0.19317,0.39169 0.19317,0.85461 z m -1.1161,-0.97569 q 0,-0.27419 -0.10731,-0.49496 -0.103,-0.22435 -0.2962,-0.38102 -0.18887,-0.16024 -0.4593,-0.24571 -0.26616,-0.089 -0.58811,-0.089 h -1.51101 q -0.32624,0 -0.59667,0.089 -0.26615,0.0855 -0.45932,0.24571 -0.19317,0.15667 -0.30049,0.38102 -0.10299,0.22077 -0.10299,0.49496 v 0.97569 q 0,0.27419 0.10299,0.49853 0.10732,0.22077 0.30049,0.38102 0.19317,0.15667 0.45932,0.2457 0.27043,0.0854 0.59667,0.0854 h 1.50243 q 0.32625,0 0.59239,-0.0854 0.27043,-0.089 0.4636,-0.2457 0.19317,-0.16025 0.2962,-0.38102 0.10731,-0.22434 0.10731,-0.49853 z m 8.67977,0.97569 q 0,0.46648 -0.19317,0.85817 -0.19317,0.39171 -0.53658,0.67658 -0.34342,0.28487 -0.81561,0.44511 -0.46789,0.15669 -1.02165,0.15669 h -1.51102 q -0.55375,0 -1.02594,-0.15669 -0.47219,-0.16024 -0.8156,-0.44511 -0.34342,-0.28487 -0.54088,-0.67658 -0.19317,-0.39169 -0.19317,-0.85817 v -0.97569 q 0,-0.46292 0.19317,-0.85461 0.19746,-0.39526 0.54088,-0.67658 0.34341,-0.28487 0.8156,-0.44512 0.47219,-0.16023 1.02594,-0.16023 h 1.51102 q 0.55376,0 1.02165,0.16023 0.47219,0.16025 0.81561,0.44512 0.34341,0.28132 0.53658,0.67658 0.19317,0.39169 0.19317,0.85461 z m -1.11609,-0.97569 q 0,-0.27419 -0.10732,-0.49496 -0.10299,-0.22435 -0.29619,-0.38102 -0.18888,-0.16024 -0.45931,-0.24571 -0.26615,-0.089 -0.5881,-0.089 h -1.51102 q -0.32624,0 -0.59667,0.089 -0.26616,0.0855 -0.45933,0.24571 -0.19317,0.15667 -0.30048,0.38102 -0.103,0.22077 -0.103,0.49496 v 0.97569 q 0,0.27419 0.103,0.49853 0.10731,0.22077 0.30048,0.38102 0.19317,0.15667 0.45933,0.2457 0.27043,0.0854 0.59667,0.0854 h 1.50243 q 0.32625,0 0.59239,-0.0854 0.27045,-0.089 0.46361,-0.2457 0.19317,-0.16025 0.29619,-0.38102 0.10732,-0.22434 0.10732,-0.49853 z m 7.87274,3.04102 h -5.0911 q -0.12019,0 -0.22322,-0.0356 -0.10299,-0.0356 -0.1803,-0.0962 -0.073,-0.0642 -0.11595,-0.14956 -0.0429,-0.0855 -0.0429,-0.18517 v -4.63986 h 1.11609 v 4.1805 h 4.53735 z"
          aria-label="CRANE POAM AUTOMATION TOOL" />
		<path
		  d="m 299.35694,252.71645 h -22.1684 q -0.85081,0 -1.84343,-0.18907 -0.96898,-0.21271 -1.93796,-0.63811 -0.94535,-0.42541 -1.81979,-1.08715 -0.87445,-0.68538 -1.55983,-1.63073 -0.66174,-0.96898 -1.06351,-2.22156 -0.40178,-1.27622 -0.40178,-2.85968 v -16.63812 q 0,-0.85081 0.18907,-1.81979 0.21271,-0.99262 0.63811,-1.93797 0.42541,-0.96898 1.11079,-1.84342 0.68537,-0.87445 1.63072,-1.53619 0.96898,-0.68538 2.22157,-1.08715 1.25258,-0.40178 2.83604,-0.40178 h 22.1684 v 6.14476 h -22.1684 q -1.20532,0 -1.84343,0.63811 -0.63811,0.63811 -0.63811,1.8907 v 16.59085 q 0,1.18168 0.63811,1.84343 0.66175,0.63811 1.84343,0.63811 h 22.1684 z m 39.58643,-19.7105 q 0,2.1034 -0.51994,3.75775 -0.51994,1.65436 -1.41802,2.93058 -0.87445,1.25259 -2.0325,2.15067 -1.15805,0.89808 -2.43427,1.46529 -1.25258,0.56721 -2.55244,0.82718 -1.27621,0.25997 -2.41063,0.25997 h -13.89661 v -6.14476 h 13.89661 q 1.18168,-0.0945 2.12703,-0.47268 0.96898,-0.40177 1.65436,-1.06351 0.68538,-0.66175 1.06351,-1.58346 0.37814,-0.94535 0.37814,-2.12703 v -2.78878 q -0.11816,-1.15805 -0.4963,-2.12703 -0.37814,-0.96898 -1.03989,-1.65436 -0.63811,-0.68537 -1.55982,-1.06351 -0.92171,-0.40178 -2.12703,-0.40178 h -13.84934 q -1.22896,0 -1.86707,0.63811 -0.63811,0.63811 -0.63811,1.84343 v 25.26442 h -6.14476 v -25.26442 q 0,-2.36337 0.85082,-4.01773 0.87444,-1.65436 2.15066,-2.6706 1.29986,-1.01625 2.81241,-1.46529 1.51256,-0.47268 2.78878,-0.47268 h 13.89661 q 2.07976,0 3.73412,0.54358 1.65436,0.51994 2.90695,1.41802 1.27621,0.87445 2.15066,2.0325 0.89808,1.15805 1.46529,2.43427 0.59084,1.25258 0.85081,2.55244 0.25997,1.27622 0.25997,2.41063 z m 38.49929,19.7105 h -6.14476 v -8.31906 h -21.60119 v 8.31906 h -6.14476 v -16.94536 q 0,-3.71049 1.27622,-6.83014 1.27621,-3.11964 3.54505,-5.36484 2.26883,-2.24521 5.36485,-3.49779 3.09601,-1.25259 6.75923,-1.25259 h 13.84934 q 0.63811,0 1.20532,0.23634 0.56721,0.23634 0.99262,0.66174 0.4254,0.42541 0.66174,0.99262 0.23634,0.56721 0.23634,1.20532 z m -27.74595,-14.46382 h 21.60119 v -13.28214 h -10.8006 q -0.2836,0 -1.20532,0.0945 -0.89808,0.0709 -2.10339,0.40177 -1.18169,0.33087 -2.50518,1.01625 -1.32348,0.68538 -2.43427,1.89069 -1.11078,1.20532 -1.84342,3.02512 -0.70901,1.79616 -0.70901,4.37223 z m 65.51258,-13.28214 h -13.54211 v 27.74596 h -6.14476 v -27.74596 h -13.56574 v -6.14476 h 33.25261 z"
          style="fill:#ffffff;stroke:#ffffff;opacity:0.9;font-size:48.4018px;line-height:0;font-family:Audiowide;-inkscape-font-specification:Audiowide;stroke-width:0.0547551"
		  transform="scale(1.1524269,0.867734)"
		  aria-label="CPAT" />
	</g>
</svg>