<?xml version="1.0" encoding="UTF-8" standalone="no"?>
<svg
   version="1.2"
   viewBox="0 0 212.07922 201.84685"
   fill="none"
   width="212.07922"
   height="201.84685"
   id="svg1"
   sodipodi:docname="tenable_small.svg"
   inkscape:version="1.3.2 (091e20e, 2023-11-25, custom)"
   xmlns:inkscape="http://www.inkscape.org/namespaces/inkscape"
   xmlns:sodipodi="http://sodipodi.sourceforge.net/DTD/sodipodi-0.dtd"
   xmlns="http://www.w3.org/2000/svg"
   xmlns:svg="http://www.w3.org/2000/svg"
   xmlns:rdf="http://www.w3.org/1999/02/22-rdf-syntax-ns#"
   xmlns:cc="http://creativecommons.org/ns#"
   xmlns:dc="http://purl.org/dc/elements/1.1/">
  <defs
     id="defs1" />
  <sodipodi:namedview
     id="namedview1"
     pagecolor="#ffffff"
     bordercolor="#000000"
     borderopacity="0.25"
     inkscape:showpageshadow="2"
     inkscape:pageopacity="0.0"
     inkscape:pagecheckerboard="0"
     inkscape:deskcolor="#d1d1d1"
     inkscape:zoom="2.4350736"
     inkscape:cx="95.890324"
     inkscape:cy="186.23667"
     inkscape:window-width="1649"
     inkscape:window-height="1266"
     inkscape:window-x="2608"
     inkscape:window-y="325"
     inkscape:window-maximized="0"
     inkscape:current-layer="svg1" />
  <title
     id="title1">tenable-svg</title>
  <g
     id="g1"
     transform="matrix(0.13656969,0,0,0.13516027,-0.10006688,-0.02853115)">
    <path
       id="Layer"
       fill="currentColor"
       fill-rule="evenodd"
       class="s0"
       d="m 1520.5,958.7 -438.3,491.2 c -25,28 -60.9,43.7 -97.8,43.7 -8.2,0 -16.5,-0.8 -24.8,-2.4 L 313.4,1365.1 c -46,-8.9 -83.9,-42.1 -98.8,-86.5 L 7.5,663.8 C -7.4,619.4 2.7,570.1 33.9,535.1 L 472.2,43.9 C 502.7,9.7 549.6,-6.2 594.7,2.6 l 646.2,126.1 c 46,8.9 83.9,42.2 98.9,86.6 l 207,614.7 c 15,44.5 4.9,93.8 -26.3,128.7 z M 1232.3,173.4 1121,151.6 c 8.6,7.4 16.2,16.1 22.5,26 l 289.4,456.5 -136.2,-404.3 c -9.8,-29 -34.5,-50.6 -64.4,-56.4 z m -89.5,1084.7 98.2,-186.6 c -0.6,0.4 -1.2,0.8 -1.8,1.1 l -408.1,236.2 252.3,-12.8 c 24.9,-1.2 47.7,-15.7 59.4,-37.9 z m -629.6,66.9 219.2,-11.1 c -2,-1 -3.9,-2 -5.8,-3.1 L 315.3,1072.7 c -2.9,-1.7 -5.7,-3.5 -8.4,-5.5 L 449.4,1292 c 13.7,21.6 38.1,34.2 63.8,33 z M 411.6,235.8 313.4,422.4 c 0.7,-0.4 1.3,-0.8 1.9,-1.1 L 723.2,185.1 471,197.9 c -25,1.2 -47.7,15.7 -59.4,37.9 z M 1041.3,169 822.1,180.1 c 1.9,1 3.9,2.1 5.8,3.1 l 411.3,238.1 c 2.9,1.6 5.6,3.5 8.4,5.4 L 1105,201.9 c -13.7,-21.6 -38.2,-34.4 -63.7,-32.9 z m 202.8,339.8 c 0,-19.9 -10.6,-38.3 -27.7,-48.2 L 805.1,222.5 c -8.6,-4.9 -18.2,-7.4 -27.9,-7.4 -9.6,0 -19.2,2.4 -27.8,7.4 l -411.3,238 c -17.1,10 -27.8,28.4 -27.8,48.2 v 476.4 c 0,19.9 10.7,38.3 27.8,48.2 l 411.2,238.1 c 17.2,9.9 38.6,9.9 55.8,0 l 411.3,-238 c 17.1,-10 27.7,-28.4 27.7,-48.2 z M 264.8,985.2 V 514.7 L 144.2,743.8 c -11.8,22.5 -10.7,49.8 2.9,71.3 l 119.4,188.5 c -1.1,-6.1 -1.7,-12.2 -1.7,-18.4 z M 1289.6,508.8 v 470.4 l 120.6,-229.1 c 11.8,-22.4 10.7,-49.8 -2.9,-71.2 L 1287.9,490.4 c 1.1,6 1.7,12.2 1.7,18.4 z m -862,-346.5 c 12.9,-5.7 26.8,-9.1 41.2,-9.9 L 989.6,126 586.1,47.3 c -5.4,-1 -10.8,-1.5 -16.2,-1.5 -24,0 -47.4,10.2 -63.7,28.5 z M 50.7,649.4 90.9,768.8 C 92,752.9 96.3,737.1 104,722.7 L 357.7,240.6 67.8,565.4 c -20.3,22.8 -26.9,54.9 -17.1,84 z m 271.4,671.1 111.2,21.7 c -8.5,-7.3 -16.2,-16.1 -22.4,-25.9 L 121.5,859.8 257.7,1264.1 c 9.8,28.9 34.4,50.6 64.4,56.4 z m 804.7,11.2 c -12.9,5.7 -26.7,9.1 -41.2,9.9 l -520.8,26.3 403.5,78.8 c 29.4,5.7 60,-4.7 79.9,-27 z m 376.9,-487.1 -40.2,-119.5 c -1.1,16 -5.4,31.7 -13,46.2 l -253.8,482 289.8,-324.8 c 20.4,-22.8 27,-54.9 17.2,-83.9 z" />
  </g>
  <metadata
     id="metadata1">
    <rdf:RDF>
      <cc:Work
         rdf:about="">
        <dc:title>tenable-svg</dc:title>
      </cc:Work>
    </rdf:RDF>
  </metadata>
</svg>
